<?xml version="1.0" encoding="utf-8"?>
<!-- Generator: Adobe Illustrator 24.1.1, SVG Export Plug-In . SVG Version: 6.00 Build 0)  -->
<svg version="1.1" id="Capa_1" xmlns="http://www.w3.org/2000/svg" xmlns:xlink="http://www.w3.org/1999/xlink" x="0px" y="0px"
	 viewBox="0 0 336 336" style="enable-background:new 0 0 336 336;" xml:space="preserve">
<g>
	<path d="M210.7,196.5c-8.3-7.3-17.1-13.4-26.4-18.2c15.3-14.1,24.8-34.3,24.8-56.7c0-42.7-34.7-77.4-77.4-77.4
		s-77.4,34.7-77.4,77.4c0,22.4,9.6,42.6,24.8,56.8c-9.3,4.8-18.1,10.8-26.4,18.1c-21,18.6-36.6,43.9-45.3,73.1
		c-3,10.3-1,21.4,5.4,30c6.4,8.6,16.5,13.6,27.2,13.6h183.3c10.7,0,20.8-5.1,27.2-13.6c6.4-8.6,8.4-19.7,5.4-30
		C247.3,240.4,231.7,215.1,210.7,196.5z M131.6,78.2c23.9,0,43.4,19.5,43.4,43.4S155.6,165,131.6,165s-43.4-19.5-43.4-43.4
		S107.7,78.2,131.6,78.2z M40,279.3c13.7-46.5,49.6-79.7,91.7-79.7s78,33.2,91.7,79.7H40z"/>
	<path d="M313.8,78H297V61.2c0-9.4-7.6-17-17-17s-17,7.6-17,17V78h-16.8c-9.4,0-17,7.6-17,17s7.6,17,17,17H263v16.8
		c0,9.4,7.6,17,17,17s17-7.6,17-17V112h16.8c9.4,0,17-7.6,17-17S323.2,78,313.8,78z"/>
</g>
</svg>
